<svg xmlns="http://www.w3.org/2000/svg" viewBox="0 0 500 500"><g id="freepik--Desk--inject-152"><polygon points="203.55 216.17 216.4 216.17 212.98 252.96 233.3 256.01 233.3 258.57 190.5 258.57 190.5 256.01 199.26 252.96 203.55 216.17" style="fill:#263238"></polygon><path d="M253.43,239.52a4,4,0,0,1-4,4.47H171.61a5,5,0,0,1-4.87-4.47l-4.62-49.8a4.31,4.31,0,0,1,.1-1.45,4,4,0,0,1,3.93-3h77.79a5,5,0,0,1,4.87,4.47Z" style="fill:#263238"></path><path d="M171.61,241.48a2.47,2.47,0,0,1-2.37-2.19l-4.62-49.8a1.73,1.73,0,0,1,0-.61,1.46,1.46,0,0,1,1.5-1.13h77.79a2.49,2.49,0,0,1,2.38,2.2l4.62,49.8a1.65,1.65,0,0,1-.38,1.26,1.5,1.5,0,0,1-1.16.47Z" style="fill:#407BFF"></path><path d="M171.61,241.48a2.47,2.47,0,0,1-2.37-2.19l-4.62-49.8a1.73,1.73,0,0,1,0-.61,1.46,1.46,0,0,1,1.5-1.13h77.79a2.49,2.49,0,0,1,2.38,2.2l4.62,49.8a1.65,1.65,0,0,1-.38,1.26,1.5,1.5,0,0,1-1.16.47Z" style="fill:#fff;opacity:0.6000000000000001;isolation:isolate"></path><polygon points="156.34 418.98 150.22 418.98 139.21 265.74 147.34 265.74 156.34 418.98" style="fill:#263238"></polygon><polygon points="156.35 418.98 150.22 418.98 139.75 273.35 139.21 265.98 147.34 265.98 147.78 273.35 156.35 418.98" style="fill:#fff;opacity:0.4;isolation:isolate"></polygon><polygon points="147.78 272.98 139.75 272.98 139.21 265.98 147.34 265.98 147.78 272.98" style="opacity:0.2;isolation:isolate"></polygon><polygon points="301.3 418.98 295.18 418.98 294.18 265.74 302.3 265.74 301.3 418.98" style="fill:#263238"></polygon><polygon points="302.31 265.98 302.15 290.71 301.31 418.98 295.18 418.98 294.34 290.71 294.18 265.98 302.31 265.98" style="fill:#fff;opacity:0.5;isolation:isolate"></polygon><polygon points="302.31 265.98 302.15 290.98 294.34 290.98 294.18 265.98 302.31 265.98" style="opacity:0.2;isolation:isolate"></polygon><polygon points="366.34 418.98 360.22 418.98 349.21 265.74 357.34 265.74 366.34 418.98" style="fill:#263238"></polygon><polygon points="366.35 418.98 360.22 418.98 349.75 273.35 349.21 265.98 357.34 265.98 357.78 273.35 366.35 418.98" style="fill:#fff;opacity:0.5;isolation:isolate"></polygon><polygon points="357.78 272.98 349.75 272.98 349.21 265.98 357.34 265.98 357.78 272.98" style="opacity:0.2;isolation:isolate"></polygon><polygon points="86.26 418.98 80.14 418.98 89.14 265.74 97.27 265.74 86.26 418.98" style="fill:#263238"></polygon><polygon points="97.27 265.98 96.73 273.35 86.26 418.98 80.14 418.98 88.7 273.35 89.14 265.98 97.27 265.98" style="fill:#fff;opacity:0.5;isolation:isolate"></polygon><polygon points="89.14 265.98 97.27 265.98 96.73 272.98 88.7 272.98 89.14 265.98" style="opacity:0.2;isolation:isolate"></polygon><path d="M82.7,261.9H363.78a0,0,0,0,1,0,0v5.51a2.16,2.16,0,0,1-2.16,2.16H84.86a2.16,2.16,0,0,1-2.16-2.16V261.9A0,0,0,0,1,82.7,261.9Z" style="fill:#407BFF"></path><path d="M82.7,261.9H363.78a0,0,0,0,1,0,0v5.51a2.16,2.16,0,0,1-2.16,2.16H84.86a2.16,2.16,0,0,1-2.16-2.16V261.9A0,0,0,0,1,82.7,261.9Z" style="fill:#fff;opacity:0.6000000000000001;isolation:isolate"></path><rect x="82.7" y="261.9" width="281.08" height="3.84" style="opacity:0.2;isolation:isolate"></rect><path d="M367.58,262.9H78.9a2.16,2.16,0,0,1-2.16-2.16h0a2.17,2.17,0,0,1,2.16-2.17H367.58a2.17,2.17,0,0,1,2.16,2.17h0A2.16,2.16,0,0,1,367.58,262.9Z" style="fill:#407BFF"></path><path d="M367.58,262.9H78.9a2.16,2.16,0,0,1-2.16-2.16h0a2.17,2.17,0,0,1,2.16-2.17H367.58a2.17,2.17,0,0,1,2.16,2.17h0A2.16,2.16,0,0,1,367.58,262.9Z" style="fill:#fff;opacity:0.6000000000000001;isolation:isolate"></path><polygon points="216.28 258.57 217.26 254.84 257.81 254.84 276.49 256.71 277.2 258.57 216.28 258.57" style="fill:#263238"></polygon><polygon points="257.81 254.84 257.81 258.57 216.28 258.57 217.26 254.84 257.81 254.84" style="opacity:0.4;isolation:isolate"></polygon><polygon points="117.55 216.17 130.4 216.17 116.98 252.96 137.3 256.01 137.3 258.57 94.5 258.57 94.5 256.01 103.27 252.96 117.55 216.17" style="fill:#263238"></polygon><path d="M155.17,189.16a5.58,5.58,0,0,0-5.25-4.51H80.13a3.58,3.58,0,0,0-3.68,3,4.3,4.3,0,0,0,0,1.47l8.85,50.3A5.56,5.56,0,0,0,90.58,244h69.79a3.66,3.66,0,0,0,3.65-4.51Z" style="fill:#263238"></path><path d="M164,239.46a3.66,3.66,0,0,1-3.65,4.51H92.58a5.56,5.56,0,0,1-5.25-4.51l-8.85-50.3a4.3,4.3,0,0,1,0-1.47,3.58,3.58,0,0,1,3.68-3h67.79a5.58,5.58,0,0,1,5.25,4.51Z" style="fill:#fff;opacity:0.2;isolation:isolate"></path><path d="M92.37,241.45a2.78,2.78,0,0,1-2.57-2.22L81,188.93a1.88,1.88,0,0,1,0-.62,1.33,1.33,0,0,1,1.41-1.13h67.79a2.76,2.76,0,0,1,2.56,2.21l8.86,50.3a1.62,1.62,0,0,1-.28,1.28,1.4,1.4,0,0,1-1.11.48Z" style="fill:#407BFF"></path><path d="M92.37,241.45a2.78,2.78,0,0,1-2.57-2.22L81,188.93a1.88,1.88,0,0,1,0-.62,1.33,1.33,0,0,1,1.41-1.13h67.79a2.76,2.76,0,0,1,2.56,2.21l8.86,50.3a1.62,1.62,0,0,1-.28,1.28,1.4,1.4,0,0,1-1.11.48Z" style="fill:#407BFF;opacity:0.6000000000000001;isolation:isolate"></path><polygon points="285.55 216.17 298.4 216.17 284.98 252.96 305.3 256.01 305.3 258.57 262.5 258.57 262.5 256.01 271.26 252.96 285.55 216.17" style="fill:#263238"></polygon><path d="M330.58,189.72a4.68,4.68,0,0,0-4.64-4.47H256.15a4.23,4.23,0,0,0-4.08,3,4.37,4.37,0,0,0-.18,1.46l2.05,49.79a4.68,4.68,0,0,0,4.64,4.46h69.79a4.24,4.24,0,0,0,4.26-4.46Z" style="fill:#263238"></path><path d="M332.63,239.51a4.24,4.24,0,0,1-4.26,4.46H260.58a4.68,4.68,0,0,1-4.64-4.46l-2.05-49.79a4.37,4.37,0,0,1,.18-1.46,4.23,4.23,0,0,1,4.08-3h67.79a4.68,4.68,0,0,1,4.64,4.47Z" style="fill:#fff;opacity:0.4;isolation:isolate"></path><path d="M260.71,241.47a2.31,2.31,0,0,1-2.26-2.19l-2.05-49.79a2,2,0,0,1,.06-.62,1.57,1.57,0,0,1,1.56-1.12h67.79a2.34,2.34,0,0,1,2.27,2.2l2.05,49.79a1.69,1.69,0,0,1-.45,1.26,1.63,1.63,0,0,1-1.18.47Z" style="fill:#407BFF"></path><path d="M260.71,241.47a2.31,2.31,0,0,1-2.26-2.19l-2.05-49.79a2,2,0,0,1,.06-.62,1.57,1.57,0,0,1,1.56-1.12h67.79a2.34,2.34,0,0,1,2.27,2.2l2.05,49.79a1.69,1.69,0,0,1-.45,1.26,1.63,1.63,0,0,1-1.18.47Z" style="fill:#407BFF;opacity:0.6000000000000001;isolation:isolate"></path><path d="M260.71,241.47a2.31,2.31,0,0,1-2.26-2.19l-2.05-49.79a2,2,0,0,1,.06-.62,1.57,1.57,0,0,1,1.56-1.12h67.79a2.34,2.34,0,0,1,2.27,2.2l2.05,49.79a1.69,1.69,0,0,1-.45,1.26,1.63,1.63,0,0,1-1.18.47Z" style="opacity:0.4;isolation:isolate"></path><polygon points="322.45 193.05 272.68 193.05 272.64 192.12 322.41 192.12 322.45 193.05" style="fill:#fff"></polygon><polygon points="322.57 195.89 278.29 195.89 278.25 194.96 322.53 194.96 322.57 195.89" style="fill:#fff"></polygon><polygon points="322.7 198.73 294.71 198.73 294.67 197.81 322.66 197.81 322.7 198.73" style="fill:#fff"></polygon><polygon points="322.83 201.57 286.49 201.57 286.44 200.65 322.78 200.65 322.83 201.57" style="fill:#fff"></polygon><polygon points="322.95 204.42 298.85 204.42 298.81 203.49 322.91 203.49 322.95 204.42" style="fill:#fff"></polygon><polygon points="323.33 213.09 273.57 213.09 273.53 212.16 323.29 212.16 323.33 213.09" style="fill:#fff"></polygon><polygon points="323.46 215.93 279.18 215.93 279.14 215 323.42 215 323.46 215.93" style="fill:#fff"></polygon><polygon points="323.59 218.77 295.6 218.77 295.56 217.84 323.55 217.84 323.59 218.77" style="fill:#fff"></polygon><polygon points="323.71 221.62 287.37 221.62 287.33 220.69 323.67 220.69 323.71 221.62" style="fill:#fff"></polygon><polygon points="323.84 224.46 299.73 224.46 299.69 223.53 323.8 223.53 323.84 224.46" style="fill:#fff"></polygon><polygon points="215.15 223.27 171.73 223.27 169.18 194.87 212.6 194.87 215.15 223.27" style="fill:#407BFF"></polygon><polygon points="215.15 223.27 171.73 223.27 169.18 194.87 212.6 194.87 215.15 223.27" style="fill:#407BFF"></polygon><polygon points="213.43 221.85 173.19 221.85 171.25 200.19 211.49 200.19 213.43 221.85" style="fill:#263238"></polygon><polygon points="204.67 204.36 174.9 204.36 174.81 203.43 204.58 203.43 204.67 204.36" style="fill:#fff"></polygon><polygon points="189.44 207.21 175.16 207.21 175.07 206.28 189.35 206.28 189.44 207.21" style="fill:#fff"></polygon><polygon points="193.4 210.06 175.41 210.06 175.33 209.13 193.32 209.13 193.4 210.06" style="fill:#fff"></polygon><polygon points="182.01 212.92 175.67 212.92 175.58 211.99 181.92 211.99 182.01 212.92" style="fill:#fff"></polygon><polygon points="180.03 215.77 175.92 215.77 175.84 214.84 179.94 214.84 180.03 215.77" style="fill:#fff"></polygon><polygon points="243.82 237.47 200.41 237.47 197.85 209.07 241.27 209.07 243.82 237.47" style="fill:#407BFF"></polygon><polygon points="243.82 237.47 200.41 237.47 197.85 209.07 241.27 209.07 243.82 237.47" style="fill:#407BFF"></polygon><polygon points="242.11 236.05 201.87 236.05 199.92 214.39 240.16 214.39 242.11 236.05" style="fill:#263238"></polygon><polygon points="233.34 218.56 203.57 218.56 203.49 217.63 233.26 217.63 233.34 218.56" style="fill:#fff"></polygon><polygon points="218.11 221.41 203.83 221.41 203.75 220.48 218.03 220.48 218.11 221.41" style="fill:#fff"></polygon><polygon points="222.08 224.27 204.09 224.27 204 223.33 221.99 223.33 222.08 224.27" style="fill:#fff"></polygon><polygon points="210.68 227.12 204.34 227.12 204.26 226.19 210.6 226.19 210.68 227.12" style="fill:#fff"></polygon><polygon points="208.71 229.97 204.6 229.97 204.52 229.04 208.62 229.04 208.71 229.97" style="fill:#fff"></polygon><polygon points="159.34 236.05 91.7 236.05 83.78 191.92 151.43 191.92 159.34 236.05" style="fill:#fff;opacity:0.6000000000000001;isolation:isolate"></polygon><polygon points="110.35 234.32 92.75 234.32 86.23 197.98 103.83 197.98 110.35 234.32" style="fill:#fff;opacity:0.6000000000000001;isolation:isolate"></polygon><polygon points="111.93 234.32 157.61 234.32 151.09 197.98 105.42 197.98 111.93 234.32" style="fill:#fff;opacity:0.6000000000000001;isolation:isolate"></polygon><g style="opacity:0.4;isolation:isolate"><polygon points="102.07 201.69 89.3 201.69 89.14 200.77 101.91 200.77 102.07 201.69"></polygon><polygon points="97.08 204.44 89.8 204.44 89.63 203.52 96.91 203.52 97.08 204.44"></polygon><polygon points="100.28 207.19 90.29 207.19 90.12 206.26 100.11 206.26 100.28 207.19"></polygon><polygon points="97.12 209.93 90.78 209.93 90.61 209.01 96.95 209.01 97.12 209.93"></polygon><polygon points="95.38 212.68 91.27 212.68 91.11 211.76 95.21 211.76 95.38 212.68"></polygon><polygon points="104.53 215.43 91.77 215.43 91.6 214.5 104.37 214.5 104.53 215.43"></polygon><polygon points="99.54 218.17 92.26 218.17 92.09 217.25 99.37 217.25 99.54 218.17"></polygon><polygon points="102.74 220.92 92.75 220.92 92.58 220 102.57 220 102.74 220.92"></polygon><polygon points="99.58 223.66 93.24 223.66 93.08 222.74 99.42 222.74 99.58 223.66"></polygon><polygon points="97.84 226.41 93.73 226.41 93.57 225.49 97.67 225.49 97.84 226.41"></polygon><polygon points="100.57 229.16 94.23 229.16 94.06 228.23 100.4 228.23 100.57 229.16"></polygon><polygon points="98.83 231.9 94.72 231.9 94.55 230.98 98.66 230.98 98.83 231.9"></polygon></g><g style="opacity:0.4;isolation:isolate"><polygon points="142.07 201.69 109.3 201.69 109.14 200.77 141.91 200.77 142.07 201.69"></polygon><polygon points="137.08 204.44 109.8 204.44 109.63 203.52 136.91 203.52 137.08 204.44"></polygon><polygon points="140.28 207.19 110.29 207.19 110.12 206.26 140.11 206.26 140.28 207.19"></polygon><polygon points="137.12 209.93 110.78 209.93 110.61 209.01 136.95 209.01 137.12 209.93"></polygon><polygon points="135.38 212.68 111.27 212.68 111.11 211.76 135.21 211.76 135.38 212.68"></polygon><polygon points="144.53 215.43 111.77 215.43 111.6 214.5 144.37 214.5 144.53 215.43"></polygon><polygon points="139.54 218.17 112.26 218.17 112.09 217.25 139.37 217.25 139.54 218.17"></polygon><polygon points="142.74 220.92 112.75 220.92 112.58 220 142.57 220 142.74 220.92"></polygon><polygon points="139.58 223.66 113.24 223.66 113.08 222.74 139.42 222.74 139.58 223.66"></polygon><polygon points="137.84 226.41 113.73 226.41 113.57 225.49 137.67 225.49 137.84 226.41"></polygon><polygon points="140.57 229.16 114.23 229.16 114.06 228.23 140.4 228.23 140.57 229.16"></polygon><polygon points="138.82 231.9 114.72 231.9 114.55 230.98 138.66 230.98 138.82 231.9"></polygon></g></g><g id="freepik--Character--inject-152"><g id="freepik--group--inject-152"><polygon points="294.06 408.2 286.09 407.11 284.99 388.17 292.94 389.27 294.06 408.2" style="fill:#ebb376"></polygon><polygon points="292.94 389.27 284.99 388.18 285.62 399 293.57 399.7 292.94 389.27" style="opacity:0.2;isolation:isolate"></polygon><path d="M285.49,406.15l9-.57a.57.57,0,0,1,.63.51h0l.88,7.1a1.4,1.4,0,0,1-1.31,1.5c-3.14.15-4.65.06-8.61.28-2.43.14-7.22.66-10.58.33s-2.94-3.63-1.49-3.79c3.43-.39,8-2.91,10.13-4.83A2.24,2.24,0,0,1,285.49,406.15Z" style="fill:#263238"></path><path d="M285.3,407.12h0c0-.14-.13-2.41-1-3.13a1.16,1.16,0,0,0-.9-.21.77.77,0,0,0-.68.6,2.91,2.91,0,0,0,.79,1.84,3.25,3.25,0,0,0-2.22-.41.74.74,0,0,0-.41.56,1,1,0,0,0,.3,1,2.13,2.13,0,0,0,1.52.3,9.31,9.31,0,0,0,2.1-.42.08.08,0,0,0,.07,0,.33.33,0,0,0,0-.06s.19,0,.2-.07l.17,0Zm-2.21-2.66c0-.11.07-.25.33-.3h.09a.51.51,0,0,1,.41.15c.51.42.65,1.69.68,2.45l-.16-.09A3.78,3.78,0,0,1,283.09,404.46Zm-1.64,2.65a.71.71,0,0,1-.18-.66.33.33,0,0,1,.2-.27c.51-.24,1.88.35,2.85.88C282.91,407.43,281.85,407.45,281.45,407.11Z" style="fill:#407BFF"></path><path d="M293.74,296.88l1.94-12.18L340.34,282s4.75,25.34,1.1,32.09c-6.51,12.05-41.61,6-51.89,7.15,6.14,25.11,5.54,74.18,5.54,74.18l-14.67,1.12s-11.28-52.87-13.57-78C265.31,301.62,279.36,302,293.74,296.88Z" style="fill:#263238"></path><path d="M293.74,296.88l1.94-12.18L340.34,282s4.75,25.34,1.1,32.09c-6.51,12.05-41.61,6-51.89,7.15,6.14,25.11,5.54,74.18,5.54,74.18l-14.67,1.12s-11.28-52.87-13.57-78C265.31,301.62,279.36,302,293.74,296.88Z" style="opacity:0.2;isolation:isolate"></path><path d="M261.07,193.7c.2,1.88-.6,3.5-1.79,3.64s-2.33-1.29-2.54-3.16.6-3.51,1.79-3.64S260.86,191.82,261.07,193.7Z" style="fill:none;stroke:#263238;stroke-miterlimit:10;stroke-width:0.5px"></path><path d="M261.1,203.37a12,12,0,0,0,.62,1.24,12.91,12.91,0,0,0,5.58,5.29,12.24,12.24,0,0,0,1.84.75,11.77,11.77,0,0,0,10.05-1.24,12,12,0,0,0,3.36-3.28c3.82-5.44,2.79-10.8,1.77-20A12.66,12.66,0,0,0,265,176.61C256.67,181.76,257.74,195.51,261.1,203.37Z" style="fill:#e4897b"></path><path d="M267.3,209.9a12.24,12.24,0,0,0,1.84.75,11.77,11.77,0,0,0,10.05-1.24,14,14,0,0,0-2.15-2.82A18.23,18.23,0,0,0,267.3,209.9Z" style="opacity:0.2;isolation:isolate"></path><path d="M291.39,212.34c-1.57,5.94-11.76,10.71-11.76,10.71s-6.87,2.18-6.83-.44c3.08-2.79,3.7-5.48,3.06-8a11.73,11.73,0,0,0-2.19-4.15,24.76,24.76,0,0,0-1.7-2l6-16C280.14,199.06,285,210.66,291.39,212.34Z" style="fill:#e4897b"></path><path d="M262.39,183.24s-2.58,8.69,6.33,14.93c0,0,3.75,8,5.84,9s6.8.39,8.4,0,9.81-7.23,7.44-23.26-15.84-11-15.84-11Z" style="fill:#263238"></path><path d="M269.93,194a6,6,0,0,1-2.34,4.56c-1.72,1.1-3.38-1.31-3.58-4.09-.16-2.47.52-6.09,2.58-6S270.16,191.46,269.93,194Z" style="fill:#e4897b"></path><path d="M280.08,172.24s-9.89-2.71-17.61,1.38c0,0,1.52-1,1.06-2.26s-4,3.3-4,3.3,1.19-4.34.46-4.74-5.27,6.4-3,9.7c0,0-4.4-3-3.62-.66s.78,6.39,10.93,4.41S280.08,172.24,280.08,172.24Z" style="fill:#263238"></path><line x1="256.74" y1="194.18" x2="263.99" y2="191.15" style="fill:none;stroke:#263238;stroke-miterlimit:10;stroke-width:0.5px"></line><path d="M271.67,215.88s6.69-8.26,17.37-8.15l6.53,5.45Z" style="fill:#407BFF"></path><path d="M271.67,215.88s6.69-8.26,17.37-8.15l6.53,5.45Z" style="fill:#fff;opacity:0.5;isolation:isolate"></path><path d="M231.27,250.13,224,246.82s-6.06-1.13-8.57-.56-8,8.09-7.91,9,9.6,3.16,9.81,3.16,4.32-2.32,4.32-2.32l6.71,2.32Z" style="fill:#e4897b"></path><polygon points="296.81 396.14 279.18 397.3 277.67 389.75 297.04 388.85 296.81 396.14" style="fill:#407BFF"></polygon><polygon points="296.81 396.14 279.18 397.3 277.67 389.75 297.04 388.85 296.81 396.14" style="fill:#fff;opacity:0.2"></polygon><polygon points="275.68 408.13 267.66 408.72 262.64 390.43 270.65 389.85 275.68 408.13" style="fill:#ebb376"></polygon><path d="M266.58,409l-.14,0h0c0-.12-.41-2.37-1.38-2.9a.9.9,0,0,0-.8,0,.7.7,0,0,0-.49.73,3,3,0,0,0,1.18,1.63,3.21,3.21,0,0,0-2.24.06.7.7,0,0,0-.28.63,1,1,0,0,0,.51.94,2.15,2.15,0,0,0,1.56,0,10,10,0,0,0,2-.84h.07s0-.05,0-.07A.11.11,0,0,0,266.58,409Zm-2.41-2.24c0-.11,0-.25.27-.35l.09,0a.55.55,0,0,1,.43.06c.58.31,1,1.53,1.17,2.26l-.18-.05C265.16,408.19,264.24,407.29,264.17,406.75Zm-1.05,2.94a.71.71,0,0,1-.31-.61.36.36,0,0,1,.13-.31c.46-.34,1.92,0,3,.27C264.61,409.7,263.59,409.94,263.12,409.69Z" style="fill:#407BFF"></path><polygon points="270.65 389.85 262.64 390.44 265.51 400.89 273.43 399.92 270.65 389.85" style="opacity:0.2;isolation:isolate"></polygon><path d="M259.92,399.6,274,395.45s-8.43-47.58-17-64.08c.64-.21,1.49-.48,2.54-.79,1.89-.57,4.4-1.28,7.35-2.1,20.52-5.69,62.11-16.36,62.11-16.36l-19-17.73s-75.68,11.54-77.25,31.48C232.06,335.46,259.92,399.6,259.92,399.6Z" style="fill:#263238"></path><polygon points="275.87 395.76 258.86 400.57 255.81 393.5 274.57 388.58 275.87 395.76" style="fill:#407BFF"></polygon><polygon points="275.87 395.76 258.86 400.57 255.81 393.5 274.57 388.58 275.87 395.76" style="fill:#fff;opacity:0.2"></polygon><path d="M266.88,407.9l8.68-2.42a.57.57,0,0,1,.72.36h0l2.35,6.76a1.43,1.43,0,0,1-1,1.75c-3.05.79-4.54,1-8.37,2.06-2.35.65-6.93,2.15-10.28,2.53s-3.63-2.94-2.25-3.39c3.28-1.1,7.21-4.52,8.91-6.84A2.22,2.22,0,0,1,266.88,407.9Z" style="fill:#263238"></path><path d="M261.29,224s12.65-14.16,29.54-12.7,33.81,14.5,42.22,35,11,51.5,11,51.5-27.34,7.82-55.12.69A295.54,295.54,0,0,0,261.29,224Z" style="fill:#407BFF"></path><path d="M261.29,224s12.65-14.16,29.54-12.7,33.81,14.5,42.22,35,11,51.5,11,51.5-27.34,7.82-55.12.69A295.54,295.54,0,0,0,261.29,224Z" style="fill:#fff;opacity:0.6000000000000001;isolation:isolate"></path><path d="M261.29,224c-4.26,4.43-16.45,24.74-19.92,25.5s-8.52-2.37-12.48-1.18-8,4.8-7.1,7.1,10.21,8.46,21.74,8.8c9.87.28,30.67-24.29,30.67-24.29C274.2,230.38,261.29,224,261.29,224Z" style="fill:#407BFF"></path><path d="M261.29,224c-4.26,4.43-16.45,24.74-19.92,25.5s-8.52-2.37-12.48-1.18-8,4.8-7.1,7.1,10.21,8.46,21.74,8.8c9.87.28,30.67-24.29,30.67-24.29C274.2,230.38,261.29,224,261.29,224Z" style="fill:#fff;opacity:0.5;isolation:isolate"></path><path d="M343,304.56c-28.68,5.54-56.81-5.8-56.81-5.8s-.07-2.06-.43-5.27h0c-.13-1.22-.31-2.61-.53-4.11s-.46-2.81-.76-4.32a70.84,70.84,0,0,0-3.63-12.63c-1.59-3.95-2.83-7.2-3.78-9.87q-.21-.57-.39-1.11c-.41-1.17-.76-2.22-1.06-3.15-2-6.36-1.77-7.57-1.77-7.57,7.26,1,7.8-13.93-1.91-25.05a12.47,12.47,0,0,0-8-4.32s-1-1.58,9.25-7.35c5.52-3.11,11.7-.82,16.27-.82,7.34,0,8.44-1,8.44-1,12,0,26.48,15.83,35.83,34.66.47.94.93,1.89,1.37,2.85s.9,2,1.33,3a88.05,88.05,0,0,1,6.56,23c.1.81.2,1.59.28,2.35.13,1.08.24,2.11.35,3.1.13,1.22.24,2.38.34,3.47C345.77,303.8,343,304.56,343,304.56Z" style="fill:#407BFF"></path><path d="M277.1,262.55l11.81,9.65-4.4,12.85a70.84,70.84,0,0,0-3.63-12.63C279.29,268.47,278.05,265.22,277.1,262.55Z" style="fill:#fff;opacity:0.30000000000000004;isolation:isolate"></path><polygon points="295.57 252.71 312.77 272.08 309.21 288.82 288.91 272.2 295.57 252.71" style="fill:#fff;opacity:0.30000000000000004;isolation:isolate"></polygon><polygon points="317.72 248.83 333.66 267.01 329.06 290.42 312.77 272.08 317.72 248.83" style="fill:#fff;opacity:0.30000000000000004;isolation:isolate"></polygon><path d="M343.32,278l-9.66-11,2.82-14.37a88.05,88.05,0,0,1,6.56,23C343.14,276.49,343.24,277.27,343.32,278Z" style="fill:#fff;opacity:0.30000000000000004;isolation:isolate"></path><g style="opacity:0.30000000000000004;isolation:isolate"><path d="M335.15,249.65l-3,12.57L316.57,245.5l-5,22.11L294.26,247,287.84,269l-11.13-7.6c-.41-1.17-.76-2.22-1.06-3.15l11,7.54,6.7-23,17.13,20.43,4.93-21.87L331,258.13l2.74-11.33C334.25,247.74,334.71,248.69,335.15,249.65Z" style="fill:#fff"></path></g><g style="opacity:0.30000000000000004;isolation:isolate"><path d="M344,284.6l-7.38-8.6-5,24.56-16.41-18.05-3.58,14.63-20.4-17.54-5.44,13.88c-.13-1.22-.31-2.61-.53-4.11l5.14-13.13,20.06,17.25,3.7-15.1,16.29,17.91,5-24.7,8.19,9.53C343.8,282.35,343.91,283.51,344,284.6Z" style="fill:#fff"></path></g></g><path d="M266.26,317.44h89.92a0,0,0,0,1,0,0v6.69a5,5,0,0,1-5,5H271.26a5,5,0,0,1-5-5v-6.69A0,0,0,0,1,266.26,317.44Z" transform="translate(622.44 646.57) rotate(180)" style="fill:#407BFF"></path><path d="M266.26,317.44h89.92a0,0,0,0,1,0,0v6.69a5,5,0,0,1-5,5H271.26a5,5,0,0,1-5-5v-6.69A0,0,0,0,1,266.26,317.44Z" transform="translate(622.44 646.57) rotate(180)" style="opacity:0.2;isolation:isolate"></path><path d="M353.25,395.68l-28.81-2.83v-40.5H313v40.48l-28.93,2.85a5.6,5.6,0,0,0-5.06,5.58v4.33h79.28v-4.33A5.6,5.6,0,0,0,353.25,395.68Z" style="fill:#263238"></path><path d="M353.25,395.68l-28.81-2.83v-40.5H313v40.48l-28.93,2.85a5.6,5.6,0,0,0-5.06,5.58v4.33h79.28v-4.33A5.6,5.6,0,0,0,353.25,395.68Z" style="fill:#fff;opacity:0.2;isolation:isolate"></path><circle cx="282.08" cy="410.95" r="7.47" style="fill:#263238"></circle><circle cx="355.26" cy="410.95" r="7.47" style="fill:#263238"></circle><path d="M311.05,325h15.35a0,0,0,0,1,0,0v31.93a4.13,4.13,0,0,1-4.13,4.13h-7.09a4.13,4.13,0,0,1-4.13-4.13V325A0,0,0,0,1,311.05,325Z" style="fill:#263238"></path><path d="M311.05,325h15.35a0,0,0,0,1,0,0v31.93a4.13,4.13,0,0,1-4.13,4.13h-7.09a4.13,4.13,0,0,1-4.13-4.13V325A0,0,0,0,1,311.05,325Z" style="fill:#fff;opacity:0.30000000000000004;isolation:isolate"></path><path d="M301.64,325S316,279.31,318.4,212.65a14.82,14.82,0,0,1,14.82-14.24H359.8a14.83,14.83,0,0,1,14.84,14.75c.1,24.22-1.59,73.72-15.25,114Z" style="fill:#407BFF"></path><path d="M301.64,325S316,279.31,318.4,212.65a14.82,14.82,0,0,1,14.82-14.24H359.8a14.83,14.83,0,0,1,14.84,14.75c.1,24.22-1.59,73.72-15.25,114Z" style="opacity:0.2;isolation:isolate"></path><path d="M310.71,324.42s13.65-48.56,15.91-110a13.66,13.66,0,0,1,13.67-13.14H364.8a13.68,13.68,0,0,1,13.69,13.61c.09,22.33-1.47,72.45-14.07,109.57Z" style="fill:#263238"></path><path d="M364.42,324.42H310.71s13.65-48.56,15.91-110a13.66,13.66,0,0,1,13.67-13.14H364.8a13.68,13.68,0,0,1,13.69,13.61C378.58,237.18,377,287.3,364.42,324.42Z" style="fill:#fff;opacity:0.30000000000000004;isolation:isolate"></path><path d="M321.23,289.12s-29.14-5.89-57.27-3,13.24,39.61,13.24,39.61H283s-21.92-23.31-20.7-29.11,56.42,1.85,56.42,1.85Z" style="fill:#263238"></path><path d="M321.23,289.12s-29.14-5.89-57.27-3,13.24,39.61,13.24,39.61H283s-21.92-23.31-20.7-29.11,56.42,1.85,56.42,1.85Z" style="fill:#fff;opacity:0.30000000000000004;isolation:isolate"></path><path d="M364.42,324.42H316.71s13.65-48.56,15.91-110a13.66,13.66,0,0,1,13.67-13.14H364.8a13.68,13.68,0,0,1,13.69,13.61C378.58,237.18,377,287.3,364.42,324.42Z" style="opacity:0.2;isolation:isolate"></path><rect x="263.06" y="323.28" width="102.33" height="5.84" rx="2.01" transform="translate(628.44 652.41) rotate(-180)" style="fill:#263238"></rect><rect x="263.06" y="323.28" width="102.33" height="5.84" rx="2.01" transform="translate(628.44 652.41) rotate(-180)" style="fill:#fff;opacity:0.6000000000000001;isolation:isolate"></rect></g></svg>